<?xml version="1.0" encoding="utf-8"?>
<!-- Generator: Adobe Illustrator 19.1.0, SVG Export Plug-In . SVG Version: 6.00 Build 0)  -->
<svg version="1.1" id="Layer_1" xmlns="http://www.w3.org/2000/svg" xmlns:xlink="http://www.w3.org/1999/xlink" x="0px" y="0px"
	 viewBox="0 0 58.7 60" style="enable-background:new 0 0 58.7 60;" xml:space="preserve">
<style type="text/css">
	.st0{clip-path:url(#SVGID_2_);fill:#FFFFFF;}
	.st1{clip-path:url(#SVGID_2_);}
	.st2{clip-path:url(#SVGID_4_);}
	.st3{clip-path:url(#SVGID_4_);fill:#FFFFFF;}
	.st4{clip-path:url(#SVGID_4_);fill:#CC33FF;}
</style>
<g>
	<g>
		<defs>
			<rect id="SVGID_1_" x="0" y="0" width="58.7" height="60"/>
		</defs>
		<clipPath id="SVGID_2_">
			<use xlink:href="#SVGID_1_"  style="overflow:visible;"/>
		</clipPath>
		<rect x="7" y="10" class="st0" width="41.6" height="3.8"/>
		<g class="st1">
			<defs>
				<rect id="SVGID_3_" x="0" y="0" width="58.7" height="60"/>
			</defs>
			<clipPath id="SVGID_4_">
				<use xlink:href="#SVGID_3_"  style="overflow:visible;"/>
			</clipPath>
			<path class="st2" d="M49.9,7.4H5.7C5,7.4,4.4,8,4.4,8.7V15c0,0.7,0.6,1.3,1.3,1.3h44.2c0.7,0,1.3-0.6,1.3-1.3V8.7
				C51.1,8,50.6,7.4,49.9,7.4 M48.6,13.8H7V10h41.6V13.8z"/>
			<rect x="7" y="46.7" class="st3" width="41.6" height="3.8"/>
			<path class="st2" d="M49.9,44.2H5.7c-0.7,0-1.3,0.6-1.3,1.3v6.3c0,0.7,0.6,1.3,1.3,1.3h44.2c0.7,0,1.3-0.6,1.3-1.3v-6.3
				C51.1,44.8,50.6,44.2,49.9,44.2 M48.6,50.5H7v-3.8h41.6V50.5z"/>
			<path class="st4" d="M16.9,39.7l-7.2-1.1C9,38.5,8.4,39,8.3,39.7c-0.1,0.7,0.4,1.3,1.1,1.4l7.2,1.1c0.1,0,0.1,0,0.2,0
				c0.6,0,1.2-0.5,1.3-1.1C18.1,40.4,17.6,39.8,16.9,39.7"/>
			<path class="st4" d="M46.2,22.6L9.7,17.2c-0.7-0.1-1.3,0.4-1.4,1.1c-0.1,0.7,0.4,1.3,1.1,1.4l36.5,5.3c0.1,0,0.1,0,0.2,0
				c0.6,0,1.2-0.5,1.3-1.1C47.4,23.3,46.9,22.7,46.2,22.6"/>
			<path class="st4" d="M46.2,26.9L9.7,21.5c-0.7-0.1-1.3,0.4-1.4,1.1c-0.1,0.7,0.4,1.3,1.1,1.4l36.5,5.3c0.1,0,0.1,0,0.2,0
				c0.6,0,1.2-0.5,1.3-1.1C47.4,27.6,46.9,27,46.2,26.9"/>
			<path class="st4" d="M46.2,31.1L9.7,25.8c-0.7-0.1-1.3,0.4-1.4,1.1c-0.1,0.7,0.4,1.3,1.1,1.4l36.5,5.3c0.1,0,0.1,0,0.2,0
				c0.6,0,1.2-0.5,1.3-1.1C47.4,31.9,46.9,31.2,46.2,31.1"/>
			<path class="st4" d="M46.2,35.4L9.7,30.1C9,30,8.4,30.4,8.3,31.1c-0.1,0.7,0.4,1.3,1.1,1.4l36.5,5.3c0.1,0,0.1,0,0.2,0
				c0.6,0,1.2-0.5,1.3-1.1C47.4,36.2,46.9,35.5,46.2,35.4"/>
			<path class="st4" d="M46.2,39.7L9.7,34.3c-0.7-0.1-1.3,0.4-1.4,1.1c-0.1,0.7,0.4,1.3,1.1,1.4l36.5,5.3c0.1,0,0.1,0,0.2,0
				c0.6,0,1.2-0.5,1.3-1.1C47.4,40.4,46.9,39.8,46.2,39.7"/>
			<path class="st4" d="M54.6,19.8c-0.7,0-1.3,0.6-1.3,1.3v5.5c0,0.7-0.1,0.8-0.8,0.8c-0.5,0-0.8-0.1-0.8-0.8V22
				c0-1.7-1.6-3-3.1-3.3c0,0-0.1,0-0.1,0L39,17.2c-0.7-0.1-1.3,0.4-1.4,1.1c-0.1,0.7,0.4,1.3,1.1,1.4l9.5,1.4c0.5,0.1,1,0.5,1,0.8
				v4.6c0,2,1.3,3.4,3.4,3.4c2.1,0,3.4-1.2,3.4-3.4v-5.5C55.8,20.4,55.3,19.8,54.6,19.8"/>
		</g>
	</g>
</g>
</svg>
