<?xml version="1.0" encoding="utf-8"?>
<!-- Generator: Adobe Illustrator 19.1.0, SVG Export Plug-In . SVG Version: 6.00 Build 0)  -->
<svg version="1.1" id="Ebene_1" xmlns="http://www.w3.org/2000/svg" xmlns:xlink="http://www.w3.org/1999/xlink" x="0px" y="0px"
	 viewBox="0 0 95.1 93.6" style="enable-background:new 0 0 95.1 93.6;" xml:space="preserve">
<style type="text/css">
	.st0{fill:#47B2AB;}
</style>
<path class="st0" d="M52.5,0c-1.6,0-3.1,0.1-4.7,0.3C46.3,0.1,44.7,0,43.1,0C19.4,0,0,19.4,0,43.1c0,11.3,4.4,21.6,11.5,29.3
	c1.4,2.4,3.1,4.7,5,6.8c-3.9-1.8-7.6-4.1-10.9-6.9c-0.9-0.8-2.3-0.7-3.1,0.3c-0.8,0.9-0.7,2.3,0.3,3.1C9.3,81.2,17.1,85,25.6,87
	c6.6,4.2,14.5,6.6,22.9,6.6c19.2,0,35.5-12.6,41.1-30.1c3.5-6.2,5.5-13.3,5.5-20.9C95.1,19.1,76,0,52.5,0z M47.8,4.7
	c5.6,0.7,10.8,2.5,15.4,5.3c-4.6-1.7-9.5-2.6-14.7-2.6c-6.5,0-12.7,1.5-18.3,4.1C35.4,7.9,41.4,5.5,47.8,4.7z M52,80.8
	c-20.8-0.3-37.7-17.3-37.7-38.2c0-5.2,1.1-10.2,3-14.7c7-9.7,18.5-16,31.3-16c11.2,0,21.4,4.8,28.4,12.5c3.1,5.6,4.9,12,4.9,18.8
	C81.9,61.4,69.1,76.8,52,80.8z M4.4,43.1C4.4,26.7,14.6,12.7,29,7.1c-6.9,4.6-12.4,11-15.7,18.7c-5,7-7.9,15.6-7.9,24.8
	c0,0.6,0,1.3,0,1.9C4.8,49.5,4.4,46.4,4.4,43.1z M9.9,50.5c0-1.3,0.1-2.6,0.2-3.8C11.5,61.5,20.5,74,33,80.5
	c-7-1.9-13.2-5.7-18-10.8C11.8,64.1,9.9,57.5,9.9,50.5z M48.6,89.2c-2.8,0-5.5-0.3-8.1-0.9c6.1-0.2,12-1.4,17.6-3.4
	c6.1-0.8,11.7-2.8,16.7-5.9C67.8,85.3,58.6,89.2,48.6,89.2z M85.6,61.8c-2.8,4.7-6.5,8.8-10.9,12c0-0.3-0.1-0.6-0.3-0.9
	c7.4-7.7,11.9-18.2,11.9-29.7c0-0.4,0-0.9,0-1.3c0.6,2.8,1,5.7,1,8.7C87.2,54.4,86.6,58.2,85.6,61.8z M80.6,21.7
	C77.3,16,72.7,11,67.1,7.3C80.7,13,90.3,26.2,90.7,41.6C89.1,34.1,85.5,27.3,80.6,21.7z"/>
<g>
	<path d="M37.7,27.2h-5.2c-0.5,0-1,0.2-1.4,0.5l-7.2,5.8c-0.5,0.4-0.8,1-0.8,1.7c0,0,0,0.9,0,2.2s0.7,2,2,2c1.3,0,5.2,0,5.2,0v18.8
		c0,1.2,1,2.2,2.2,2.2h5.2c1.2,0,2.2-1,2.2-2.2V29.4C39.9,28.1,38.9,27.2,37.7,27.2z"/>
</g>
<g>
	<path d="M70.1,51.6H61l4.1-3.7c2-1.8,3.5-3.4,4.6-4.9c1.2-1.7,1.8-3.6,1.8-5.7c0-1.6-0.3-3.2-1-4.6C69.9,31.2,69,30,67.8,29
		c-1.1-1-2.5-1.8-4-2.3c-1.5-0.5-3.2-0.8-5-0.8c-2.3,0-4.4,0.5-6.3,1.4c-2,1-3.6,2.4-4.7,4.1c-1.1,1.8-1.7,3.9-1.7,6.1
		c0,1.2,1,2.2,2.2,2.2h5.2c1.2,0,2.2-1,2.2-2.2c0-1.2,0.4-1.7,0.8-2c0.7-0.6,1.4-0.8,2.3-0.8c1,0,1.7,0.2,2.3,0.8
		c0.5,0.5,0.8,1.1,0.8,1.8c0,1.5-1.5,3.1-2.8,4.2L46.8,52.1c-0.5,0.4-0.8,1-0.8,1.7v4.4c0,1.2,1,2.2,2.2,2.2h21.9
		c1.2,0,2.2-1,2.2-2.2v-4.4C72.3,52.5,71.3,51.6,70.1,51.6z"/>
</g>
</svg>
